<svg width="58" height="58" viewBox="0 0 58 58" fill="none" xmlns="http://www.w3.org/2000/svg">
<path d="M28.9998 57.3333C13.3513 57.3333 0.666504 44.6485 0.666504 29C0.666504 13.3515 13.3513 0.666656 28.9998 0.666656C44.6483 0.666656 57.3332 13.3515 57.3332 29C57.3332 44.6485 44.6483 57.3333 28.9998 57.3333ZM28.9998 51.6667C35.0114 51.6667 40.7768 49.2786 45.0276 45.0277C49.2784 40.7769 51.6665 35.0116 51.6665 29C51.6665 22.9884 49.2784 17.2231 45.0276 12.9722C40.7768 8.72141 35.0114 6.33332 28.9998 6.33332C22.9883 6.33332 17.2229 8.72141 12.9721 12.9722C8.72126 17.2231 6.33317 22.9884 6.33317 29C6.33317 35.0116 8.72126 40.7769 12.9721 45.0277C17.2229 49.2786 22.9883 51.6667 28.9998 51.6667ZM25.0955 18.8425L38.9193 28.0565C39.0748 28.1599 39.2023 28.3002 39.2905 28.4648C39.3786 28.6294 39.4248 28.8133 39.4248 29C39.4248 29.1867 39.3786 29.3706 39.2905 29.5352C39.2023 29.6998 39.0748 29.84 38.9193 29.9435L25.0927 39.1575C24.9222 39.2705 24.7243 39.3353 24.52 39.3449C24.3157 39.3546 24.1125 39.3087 23.9322 39.2123C23.7518 39.1159 23.6009 38.9724 23.4954 38.7972C23.3899 38.6219 23.3339 38.4214 23.3332 38.2168V19.7832C23.3335 19.5782 23.3895 19.3771 23.4951 19.2014C23.6007 19.0257 23.752 18.882 23.9328 18.7854C24.1137 18.6889 24.3173 18.6432 24.5221 18.6533C24.7268 18.6633 24.925 18.7287 25.0955 18.8425Z" fill="white"/>
</svg>
